<?xml version="1.0" standalone="no"?>
<!DOCTYPE svg PUBLIC "-//W3C//DTD SVG 20010904//EN"
 "http://www.w3.org/TR/2001/REC-SVG-20010904/DTD/svg10.dtd">
<svg version="1.0" xmlns="http://www.w3.org/2000/svg"
 width="980.000000pt" height="980.000000pt" viewBox="0 0 980.000000 980.000000"
 preserveAspectRatio="xMidYMid meet">

<g transform="translate(0.000000,980.000000) scale(0.100000,-0.100000)"
fill="#000000" stroke="none">
<path d="M5635 7100 c-221 -30 -412 -200 -470 -420 -19 -71 -19 -220 0 -290
32 -121 65 -165 419 -566 188 -213 343 -391 345 -396 2 -6 -290 -7 -790 -3
-437 4 -1194 7 -1684 8 l-890 2 -63 -23 c-360 -130 -500 -544 -289 -859 83
-125 211 -210 357 -238 62 -12 360 -16 1709 -24 899 -6 1635 -12 1636 -13 2
-2 -145 -169 -325 -373 -181 -203 -342 -393 -359 -421 -52 -84 -74 -159 -79
-268 -8 -179 41 -310 162 -431 114 -114 237 -165 401 -165 135 0 241 34 342
111 59 45 1567 1744 1619 1826 53 82 86 191 86 293 1 105 -14 174 -58 265 -29
60 -143 194 -785 920 -413 468 -773 873 -800 901 -123 125 -308 188 -484 164z"/>
</g>
</svg>
